<?xml version="1.0" encoding="utf-8"?>
<svg xmlns="http://www.w3.org/2000/svg" viewBox="0 0 24 24" fill="#061b2e"><path d="M 6 2 C 4.9057453 2 4 2.9057453 4 4 L 4 9 C 2.895 9 2 9.895 2 11 L 2 16 C 2 17.105 2.895 18 4 18 L 4 20 C 4 21.094255 4.9057453 22 6 22 L 18 22 C 19.094255 22 20 21.094255 20 20 L 20 7.4140625 A 1.0001 1.0001 0 0 0 19.707031 6.7070312 L 15.292969 2.2929688 A 1.0001 1.0001 0 0 0 14.585938 2 L 6 2 z M 6 4 L 14 4 L 14 7 C 14 7.552 14.448 8 15 8 L 18 8 L 18 9 L 6 9 L 6 4 z M 4.0253906 11 L 5.2734375 11 L 5.9980469 12.716797 L 6.7246094 11 L 7.9707031 11 L 6.703125 13.478516 L 8 16 L 6.7382812 16 L 5.9980469 14.251953 L 5.2617188 16 L 4 16 L 5.2949219 13.478516 L 4.0253906 11 z M 9 11 L 10 11 L 10 15 L 12 15 L 12 16 L 9 16 L 9 11 z M 14.490234 11 C 15.913234 11.041 16 12.282906 16 12.503906 L 15.03125 12.503906 C 15.03125 12.400906 15.048656 11.806641 14.472656 11.806641 C 14.297656 11.806641 13.905547 11.884187 13.935547 12.367188 C 13.964547 12.810188 14.547297 13.019406 14.654297 13.066406 C 14.878297 13.148406 15.987094 13.642391 15.996094 14.650391 C 15.998094 14.864391 15.942766 15.985 14.509766 16 C 12.950766 16.017 12.845703 14.675437 12.845703 14.398438 L 13.820312 14.398438 C 13.820312 14.545438 13.832766 15.256172 14.509766 15.201172 C 14.916766 15.167172 15.005531 14.87425 15.019531 14.65625 C 15.042531 14.28925 14.692266 14.068625 14.322266 13.890625 C 13.802266 13.640625 12.979844 13.333375 12.964844 12.359375 C 12.951844 11.482375 13.596234 10.975 14.490234 11 z M 6 18 L 18 18 L 18 20 L 6 20 L 6 18 z" fill="#061b2e"/></svg>
